; OM File Header - Saved 2023/12/09 17:08:13
; (7.01 :patc (om-make-point 24 24) (om-make-point 159 25) (om-make-point 879 678) "" 183 0 nil "2023/12/09 16:37:26")
; End File Header
(in-package :om)(load-lib-for (quote ("GA")))(setf *om-current-persistent* (om-load-patch1 "es1 rhythms" (quote ((let ((box (om-load-boxcall (quote genfun) "RANDOM-FIT" (quote random-fit) (quote ((om-load-inputfun (quote input-funbox) "list of list chromosomes" "CHROMOSOMES" nil))) (om-make-point 227 142) nil nil "l" nil 1))) (when (fboundp (quote set-active)) (set-active box nil)) box) (let ((box (om-load-editor-box1 "VOICE 3" (quote voice) (quote ((om-load-inputfun (quote input-funbox) "objs" "SELF" nil) (om-load-inputfun (quote input-funbox) "a list representing a rhythm tree" "TREE" (list (quote ?) (list (list (quote |4//4|) (list 1 1 1 1))))) (om-load-inputfun (quote input-funbox) "a chord object , a list of chord objects, a list of midics, a list of lists of midics." "CHORDS" (list (let ((thechord (make-instance (quote chord) :lmidic (quote (6000)) :ldur (quote (1000)) :lvel (quote (100)) :loffset (quote (0)) :lchan (quote (1))))) (load-port-info thechord (quote (0))) (init-mus-color thechord (quote nil)) (set-extra-pairs thechord (quote nil)) (set-tonalite thechord nil) thechord))) (om-load-inputfun (quote input-funbox) "a number indicating the frequency of the quarter-note (default 60/mn)" "TEMPO" 60) (om-load-inputfun (quote input-funbox) "no documentation" "LEGATO" 100) (om-load-inputfun (quote input-funbox) "no documentation" "TIES" nil))) (om-make-point 391 348) (om-make-point 450 136) (let ((newobj (when (find-class (quote voice) nil) (make-instance (quote voice) :tree (quote (3 (((4 4) ((1 (1 1)) 3.0)) ((4 4) (1 (1 (7 -1)) (1 (-7 1)) (1 (3.0 1)))) ((4 4) ((1 (4.0 7 4 1.0)) 1.0 (1 (3.0 8 -4 -1.0)) -1))))) :chords (load-obj-list-from-save (quote ((let ((thechord (make-instance (quote chord) :lmidic (quote (6000)) :ldur (quote (500)) :lvel (quote (100)) :loffset (quote (0)) :lchan (quote (1))))) (load-port-info thechord (quote (0))) (init-mus-color thechord (quote nil)) (set-extra-pairs thechord (quote nil)) (set-tonalite thechord nil) thechord) (let ((thechord (make-instance (quote chord) :lmidic (quote (6000)) :ldur (quote (500)) :lvel (quote (100)) :loffset (quote (0)) :lchan (quote (1))))) (load-port-info thechord (quote (0))) (init-mus-color thechord (quote nil)) (set-extra-pairs thechord (quote nil)) (set-tonalite thechord nil) thechord) (let ((thechord (make-instance (quote chord) :lmidic (quote (6000)) :ldur (quote (1000)) :lvel (quote (100)) :loffset (quote (0)) :lchan (quote (1))))) (load-port-info thechord (quote (0))) (init-mus-color thechord (quote nil)) (set-extra-pairs thechord (quote nil)) (set-tonalite thechord nil) thechord) (let ((thechord (make-instance (quote chord) :lmidic (quote (6000)) :ldur (quote (875)) :lvel (quote (100)) :loffset (quote (0)) :lchan (quote (1))))) (load-port-info thechord (quote (0))) (init-mus-color thechord (quote nil)) (set-extra-pairs thechord (quote nil)) (set-tonalite thechord nil) thechord) (let ((thechord (make-instance (quote chord) :lmidic (quote (6000)) :ldur (quote (125)) :lvel (quote (100)) :loffset (quote (0)) :lchan (quote (1))))) (load-port-info thechord (quote (0))) (init-mus-color thechord (quote nil)) (set-extra-pairs thechord (quote nil)) (set-tonalite thechord nil) thechord) (let ((thechord (make-instance (quote chord) :lmidic (quote (6000)) :ldur (quote (250)) :lvel (quote (100)) :loffset (quote (0)) :lchan (quote (1))))) (load-port-info thechord (quote (0))) (init-mus-color thechord (quote nil)) (set-extra-pairs thechord (quote nil)) (set-tonalite thechord nil) thechord) (let ((thechord (make-instance (quote chord) :lmidic (quote (6000)) :ldur (quote (438)) :lvel (quote (100)) :loffset (quote (0)) :lchan (quote (1))))) (load-port-info thechord (quote (0))) (init-mus-color thechord (quote nil)) (set-extra-pairs thechord (quote nil)) (set-tonalite thechord nil) thechord) (let ((thechord (make-instance (quote chord) :lmidic (quote (6000)) :ldur (quote (250)) :lvel (quote (100)) :loffset (quote (0)) :lchan (quote (1))))) (load-port-info thechord (quote (0))) (init-mus-color thechord (quote nil)) (set-extra-pairs thechord (quote nil)) (set-tonalite thechord nil) thechord) (let ((thechord (make-instance (quote chord) :lmidic (quote (6000)) :ldur (quote (500)) :lvel (quote (100)) :loffset (quote (0)) :lchan (quote (1))))) (load-port-info thechord (quote (0))) (init-mus-color thechord (quote nil)) (set-extra-pairs thechord (quote nil)) (set-tonalite thechord nil) thechord)))) :tempo (quote ((1/4 60) nil)) :legato 100 :ties (quote (nil nil nil nil nil nil nil nil nil)))))) (load-port-info newobj (quote nil)) (init-mus-color newobj (quote nil)) (set-extra-pairs newobj (quote nil)) (set-patch-pairs newobj (quote ((nil (om-load-patch-abs1 "patch" (quote nil) (quote nil) 7.01 nil "" (om-make-point 200 200) (om-make-point 400 500)))))) (set-name newobj nil) (set-tonalite newobj nil) newobj) nil nil (pairlis (quote (score-mode cursor-mode show-stems obj-mode palette-mode winpos winsize mode grillestep notechancolor? zoom inport outport deltapict cmnpref staff fontsize approx scale)) (list 0 (quote :normal) (quote t) 0 0 (om-make-point 10 40) (om-make-point 798 428) 0 1000 nil 1 0 0 (om-make-point 0 0) (let ((newobj (make-instance (quote edition-values)))) (setf (paper-size newobj) (om-make-point 600 800)) (setf (top-margin newobj) 2) (setf (left-margin newobj) 1) (setf (right-margin newobj) 1) (setf (bottom-margin newobj) 1) (setf (orientation newobj) nil) (setf (scale newobj) nil) (setf (system-space newobj) (quote (1))) (setf (system-color newobj) (quote nil)) (setf (line-space newobj) 1) (setf (title newobj) nil) (setf (show-title? newobj) nil) (setf (show-page? newobj) nil) (setf (sheet-id newobj) nil) (setf (page-mode newobj) nil) newobj) (quote g) 24 2 nil)) t nil nil nil))) (when (fboundp (quote set-active)) (set-active box nil)) box) (let ((box (om-load-editor-box1 "VOICE 2" (quote voice) (quote ((om-load-inputfun (quote input-funbox) "objs" "SELF" nil) (om-load-inputfun (quote input-funbox) "a list representing a rhythm tree" "TREE" (list (quote ?) (list (list (quote |4//4|) (list 1 1 1 1))))) (om-load-inputfun (quote input-funbox) "a chord object , a list of chord objects, a list of midics, a list of lists of midics." "CHORDS" (list (let ((thechord (make-instance (quote chord) :lmidic (quote (6000)) :ldur (quote (1000)) :lvel (quote (100)) :loffset (quote (0)) :lchan (quote (1))))) (load-port-info thechord (quote (0))) (init-mus-color thechord (quote nil)) (set-extra-pairs thechord (quote nil)) (set-tonalite thechord nil) thechord))) (om-load-inputfun (quote input-funbox) "a number indicating the frequency of the quarter-note (default 60/mn)" "TEMPO" 60) (om-load-inputfun (quote input-funbox) "no documentation" "LEGATO" 100) (om-load-inputfun (quote input-funbox) "no documentation" "TIES" nil))) (om-make-point 391 213) (om-make-point 327 127) (let ((newobj (when (find-class (quote voice) nil) (make-instance (quote voice) :tree (quote (2 (((4 4) (1 (1 (1 1)) (1 (1.0 1)) (1 (1 1)))) ((4 4) (1 1 -2))))) :chords (load-obj-list-from-save (quote ((let ((thechord (make-instance (quote chord) :lmidic (quote (6000)) :ldur (quote (1000)) :lvel (quote (100)) :loffset (quote (0)) :lchan (quote (1))))) (load-port-info thechord (quote (0))) (init-mus-color thechord (quote nil)) (set-extra-pairs thechord (quote nil)) (set-tonalite thechord nil) thechord) (let ((thechord (make-instance (quote chord) :lmidic (quote (6000)) :ldur (quote (500)) :lvel (quote (100)) :loffset (quote (0)) :lchan (quote (1))))) (load-port-info thechord (quote (0))) (init-mus-color thechord (quote nil)) (set-extra-pairs thechord (quote nil)) (set-tonalite thechord nil) thechord) (let ((thechord (make-instance (quote chord) :lmidic (quote (6000)) :ldur (quote (500)) :lvel (quote (100)) :loffset (quote (0)) :lchan (quote (1))))) (load-port-info thechord (quote (0))) (init-mus-color thechord (quote nil)) (set-extra-pairs thechord (quote nil)) (set-tonalite thechord nil) thechord) (let ((thechord (make-instance (quote chord) :lmidic (quote (6000)) :ldur (quote (500)) :lvel (quote (100)) :loffset (quote (0)) :lchan (quote (1))))) (load-port-info thechord (quote (0))) (init-mus-color thechord (quote nil)) (set-extra-pairs thechord (quote nil)) (set-tonalite thechord nil) thechord) (let ((thechord (make-instance (quote chord) :lmidic (quote (6000)) :ldur (quote (500)) :lvel (quote (100)) :loffset (quote (0)) :lchan (quote (1))))) (load-port-info thechord (quote (0))) (init-mus-color thechord (quote nil)) (set-extra-pairs thechord (quote nil)) (set-tonalite thechord nil) thechord) (let ((thechord (make-instance (quote chord) :lmidic (quote (6000)) :ldur (quote (500)) :lvel (quote (100)) :loffset (quote (0)) :lchan (quote (1))))) (load-port-info thechord (quote (0))) (init-mus-color thechord (quote nil)) (set-extra-pairs thechord (quote nil)) (set-tonalite thechord nil) thechord) (let ((thechord (make-instance (quote chord) :lmidic (quote (6000)) :ldur (quote (1000)) :lvel (quote (100)) :loffset (quote (0)) :lchan (quote (1))))) (load-port-info thechord (quote (0))) (init-mus-color thechord (quote nil)) (set-extra-pairs thechord (quote nil)) (set-tonalite thechord nil) thechord) (let ((thechord (make-instance (quote chord) :lmidic (quote (6000)) :ldur (quote (1000)) :lvel (quote (100)) :loffset (quote (0)) :lchan (quote (1))))) (load-port-info thechord (quote (0))) (init-mus-color thechord (quote nil)) (set-extra-pairs thechord (quote nil)) (set-tonalite thechord nil) thechord)))) :tempo (quote ((1/4 60) nil)) :legato 100 :ties (quote (nil nil nil nil nil nil nil nil)))))) (load-port-info newobj (quote nil)) (init-mus-color newobj (quote nil)) (set-extra-pairs newobj (quote nil)) (set-patch-pairs newobj (quote nil)) (set-name newobj nil) (set-tonalite newobj nil) newobj) nil nil (pairlis (quote (show-stems obj-mode palette-mode winpos winsize mode grillestep notechancolor? zoom inport outport deltapict cmnpref staff fontsize approx scale)) (list (quote t) 0 0 2621450 18350450 0 1000 nil 1 0 0 (om-make-point 0 0) (let ((newobj (make-instance (quote edition-values)))) (setf (paper-size newobj) (om-make-point 600 800)) (setf (top-margin newobj) 2) (setf (left-margin newobj) 1) (setf (right-margin newobj) 1) (setf (bottom-margin newobj) 1) (setf (orientation newobj) nil) (setf (scale newobj) nil) (setf (system-space newobj) (quote (1))) (setf (system-color newobj) (quote nil)) (setf (line-space newobj) 1) (setf (title newobj) nil) (setf (show-title? newobj) nil) (setf (show-page? newobj) nil) (setf (sheet-id newobj) nil) (setf (page-mode newobj) nil) newobj) (quote g) 24 2 nil)) t nil nil nil))) (when (fboundp (quote set-active)) (set-active box nil)) box) (let ((box (om-load-boxcall (quote bastype) "list 7" (quote list) (quote nil) (om-make-point 248 46) (om-make-point 35 30) 0.85 "0.85" nil))) (when (fboundp (quote set-active)) (set-active box nil)) box) (let ((box (om-load-boxcall (quote bastype) "list 6" (quote list) (quote nil) (om-make-point 161 3) (om-make-point 36 30) 1/16 "1/16" nil))) (when (fboundp (quote set-active)) (set-active box nil)) box) (let ((box (om-load-boxcall (quote bastype) "list 5" (quote list) (quote nil) (om-make-point 126 11) (om-make-point 29 30) 1/2 "1/2" nil))) (when (fboundp (quote set-active)) (set-active box nil)) box) (let ((box (om-load-boxcall (quote bastype) "list 4" (quote list) (quote nil) (om-make-point 89 18) (om-make-point 36 30) 1/16 "1/16" nil))) (when (fboundp (quote set-active)) (set-active box nil)) box) (let ((box (om-load-boxcall (quote bastype) "list 3" (quote list) (quote nil) (om-make-point 186 36) (om-make-point 17 30) 2 "2" nil))) (when (fboundp (quote set-active)) (set-active box nil)) box) (let ((box (om-load-boxcall (quote bastype) "list 2" (quote list) (quote nil) (om-make-point 37 38) (om-make-point 31 30) 200 "200" nil))) (when (fboundp (quote set-active)) (set-active box nil)) box) (let ((box (om-load-boxcall (quote bastype) "list2" (quote list) (quote nil) (om-make-point 331 250) (om-make-point 34 30) 10 "10" nil))) (when (fboundp (quote set-active)) (set-active box nil)) box) (let ((box (om-load-boxcall (quote bastype) "list1" (quote list) (quote nil) (om-make-point 282 247) (om-make-point 27 30) 1 "1" nil))) (when (fboundp (quote set-active)) (set-active box nil)) box) (let ((box (om-load-boxcall (quote bastype) "list" (quote list) (quote nil) (om-make-point 139 259) (om-make-point 41 30) 100 "100" nil))) (when (fboundp (quote set-active)) (set-active box nil)) box) (let ((box (om-load-boxcall (quote abstraction) "mypatch3" (om-load-patch-abs1 "esempi1" (quote ((let ((box (om-load-editor-box1 "VOICE2" (quote voice) (quote ((om-load-inputfun (quote input-funbox) "objs" "SELF" nil) (om-load-inputfun (quote input-funbox) "a list representing a rhythm tree" "TREE" (list (quote ?) (list (list (quote |4//4|) (list 1 1 1 1))))) (om-load-inputfun (quote input-funbox) "a chord object , a list of chord objects, a list of midics, a list of lists of midics." "CHORDS" (list (let ((thechord (make-instance (quote chord) :lmidic (quote (6000)) :ldur (quote (1000)) :lvel (quote (100)) :loffset (quote (0)) :lchan (quote (1))))) (load-port-info thechord (quote (0))) (init-mus-color thechord (quote nil)) (set-extra-pairs thechord (quote nil)) (set-tonalite thechord nil) thechord))) (om-load-inputfun (quote input-funbox) "a number indicating the frequency of the quarter-note (default 60/mn)" "TEMPO" 60) (om-load-inputfun (quote input-funbox) "no documentation" "LEGATO" 100) (om-load-inputfun (quote input-funbox) "no documentation" "TIES" nil))) (om-make-point 18 347) (om-make-point 480 123) (let ((newobj (when (find-class (quote voice) nil) (make-instance (quote voice) :tree (quote (2 (((4 4) (1 (1 (1 3)) (1 (1 3)) 1.0)) ((4 4) (1 (1 (3.0 1)) 1.0 (1 (2 1 -1))))))) :chords (load-obj-list-from-save (quote ((let ((thechord (make-instance (quote chord) :lmidic (quote (6000)) :ldur (quote (1000)) :lvel (quote (100)) :loffset (quote (0)) :lchan (quote (1))))) (load-port-info thechord (quote (0))) (init-mus-color thechord (quote nil)) (set-extra-pairs thechord (quote nil)) (set-tonalite thechord nil) thechord) (let ((thechord (make-instance (quote chord) :lmidic (quote (6000)) :ldur (quote (250)) :lvel (quote (100)) :loffset (quote (0)) :lchan (quote (1))))) (load-port-info thechord (quote (0))) (init-mus-color thechord (quote nil)) (set-extra-pairs thechord (quote nil)) (set-tonalite thechord nil) thechord) (let ((thechord (make-instance (quote chord) :lmidic (quote (6000)) :ldur (quote (750)) :lvel (quote (100)) :loffset (quote (0)) :lchan (quote (1))))) (load-port-info thechord (quote (0))) (init-mus-color thechord (quote nil)) (set-extra-pairs thechord (quote nil)) (set-tonalite thechord nil) thechord) (let ((thechord (make-instance (quote chord) :lmidic (quote (6000)) :ldur (quote (250)) :lvel (quote (100)) :loffset (quote (0)) :lchan (quote (1))))) (load-port-info thechord (quote (0))) (init-mus-color thechord (quote nil)) (set-extra-pairs thechord (quote nil)) (set-tonalite thechord nil) thechord) (let ((thechord (make-instance (quote chord) :lmidic (quote (6000)) :ldur (quote (750)) :lvel (quote (100)) :loffset (quote (0)) :lchan (quote (1))))) (load-port-info thechord (quote (0))) (init-mus-color thechord (quote nil)) (set-extra-pairs thechord (quote nil)) (set-tonalite thechord nil) thechord) (let ((thechord (make-instance (quote chord) :lmidic (quote (6000)) :ldur (quote (1000)) :lvel (quote (100)) :loffset (quote (0)) :lchan (quote (1))))) (load-port-info thechord (quote (0))) (init-mus-color thechord (quote nil)) (set-extra-pairs thechord (quote nil)) (set-tonalite thechord nil) thechord) (let ((thechord (make-instance (quote chord) :lmidic (quote (6000)) :ldur (quote (250)) :lvel (quote (100)) :loffset (quote (0)) :lchan (quote (1))))) (load-port-info thechord (quote (0))) (init-mus-color thechord (quote nil)) (set-extra-pairs thechord (quote nil)) (set-tonalite thechord nil) thechord) (let ((thechord (make-instance (quote chord) :lmidic (quote (6000)) :ldur (quote (500)) :lvel (quote (100)) :loffset (quote (0)) :lchan (quote (1))))) (load-port-info thechord (quote (0))) (init-mus-color thechord (quote nil)) (set-extra-pairs thechord (quote nil)) (set-tonalite thechord nil) thechord) (let ((thechord (make-instance (quote chord) :lmidic (quote (6000)) :ldur (quote (250)) :lvel (quote (100)) :loffset (quote (0)) :lchan (quote (1))))) (load-port-info thechord (quote (0))) (init-mus-color thechord (quote nil)) (set-extra-pairs thechord (quote nil)) (set-tonalite thechord nil) thechord)))) :tempo (quote ((1/4 60) nil)) :legato 100 :ties (quote (nil nil nil nil nil nil nil nil nil)))))) (load-port-info newobj (quote nil)) (init-mus-color newobj (quote nil)) (set-extra-pairs newobj (quote nil)) (set-patch-pairs newobj (quote nil)) (set-name newobj nil) (set-tonalite newobj nil) newobj) nil nil (pairlis (quote (show-stems obj-mode palette-mode winpos winsize mode grillestep notechancolor? zoom inport outport deltapict cmnpref staff fontsize approx scale)) (list (quote t) 0 0 2621450 18350450 0 1000 nil 1 0 0 (om-make-point 0 0) (let ((newobj (make-instance (quote edition-values)))) (setf (paper-size newobj) (om-make-point 600 800)) (setf (top-margin newobj) 2) (setf (left-margin newobj) 1) (setf (right-margin newobj) 1) (setf (bottom-margin newobj) 1) (setf (orientation newobj) nil) (setf (scale newobj) nil) (setf (system-space newobj) (quote (1))) (setf (system-color newobj) (quote nil)) (setf (line-space newobj) 1) (setf (title newobj) nil) (setf (show-title? newobj) nil) (setf (show-page? newobj) nil) (setf (sheet-id newobj) nil) (setf (page-mode newobj) nil) newobj) (quote g) 24 2 nil)) t nil nil nil))) (when (fboundp (quote set-active)) (set-active box nil)) box) (let ((box (om-load-editor-box1 "VOICE1" (quote voice) (quote ((om-load-inputfun (quote input-funbox) "objs" "SELF" nil) (om-load-inputfun (quote input-funbox) "a list representing a rhythm tree" "TREE" (list (quote ?) (list (list (quote |4//4|) (list 1 1 1 1))))) (om-load-inputfun (quote input-funbox) "a chord object , a list of chord objects, a list of midics, a list of lists of midics." "CHORDS" (list (let ((thechord (make-instance (quote chord) :lmidic (quote (6000)) :ldur (quote (1000)) :lvel (quote (100)) :loffset (quote (0)) :lchan (quote (1))))) (load-port-info thechord (quote (0))) (init-mus-color thechord (quote nil)) (set-extra-pairs thechord (quote nil)) (set-tonalite thechord nil) thechord))) (om-load-inputfun (quote input-funbox) "a number indicating the frequency of the quarter-note (default 60/mn)" "TEMPO" 60) (om-load-inputfun (quote input-funbox) "no documentation" "LEGATO" 100) (om-load-inputfun (quote input-funbox) "no documentation" "TIES" nil))) (om-make-point 94 201) (om-make-point 480 123) (let ((newobj (when (find-class (quote voice) nil) (make-instance (quote voice) :tree (quote (3 (((4 4) (1 1 (1 (1.0 1)) (1 (1 1)))) ((4 4) ((1 (3 1)) 1.0 (1 (1 1)) 1.0)) ((4 4) (-4))))) :chords (load-obj-list-from-save (quote ((let ((thechord (make-instance (quote chord) :lmidic (quote (6000)) :ldur (quote (1000)) :lvel (quote (100)) :loffset (quote (0)) :lchan (quote (1))))) (load-port-info thechord (quote (0))) (init-mus-color thechord (quote nil)) (set-extra-pairs thechord (quote nil)) (set-tonalite thechord nil) thechord) (let ((thechord (make-instance (quote chord) :lmidic (quote (6000)) :ldur (quote (1000)) :lvel (quote (100)) :loffset (quote (0)) :lchan (quote (1))))) (load-port-info thechord (quote (0))) (init-mus-color thechord (quote nil)) (set-extra-pairs thechord (quote nil)) (set-tonalite thechord nil) thechord) (let ((thechord (make-instance (quote chord) :lmidic (quote (6000)) :ldur (quote (500)) :lvel (quote (100)) :loffset (quote (0)) :lchan (quote (1))))) (load-port-info thechord (quote (0))) (init-mus-color thechord (quote nil)) (set-extra-pairs thechord (quote nil)) (set-tonalite thechord nil) thechord) (let ((thechord (make-instance (quote chord) :lmidic (quote (6000)) :ldur (quote (500)) :lvel (quote (100)) :loffset (quote (0)) :lchan (quote (1))))) (load-port-info thechord (quote (0))) (init-mus-color thechord (quote nil)) (set-extra-pairs thechord (quote nil)) (set-tonalite thechord nil) thechord) (let ((thechord (make-instance (quote chord) :lmidic (quote (6000)) :ldur (quote (500)) :lvel (quote (100)) :loffset (quote (0)) :lchan (quote (1))))) (load-port-info thechord (quote (0))) (init-mus-color thechord (quote nil)) (set-extra-pairs thechord (quote nil)) (set-tonalite thechord nil) thechord) (let ((thechord (make-instance (quote chord) :lmidic (quote (6000)) :ldur (quote (750)) :lvel (quote (100)) :loffset (quote (0)) :lchan (quote (1))))) (load-port-info thechord (quote (0))) (init-mus-color thechord (quote nil)) (set-extra-pairs thechord (quote nil)) (set-tonalite thechord nil) thechord) (let ((thechord (make-instance (quote chord) :lmidic (quote (6000)) :ldur (quote (250)) :lvel (quote (100)) :loffset (quote (0)) :lchan (quote (1))))) (load-port-info thechord (quote (0))) (init-mus-color thechord (quote nil)) (set-extra-pairs thechord (quote nil)) (set-tonalite thechord nil) thechord) (let ((thechord (make-instance (quote chord) :lmidic (quote (6000)) :ldur (quote (500)) :lvel (quote (100)) :loffset (quote (0)) :lchan (quote (1))))) (load-port-info thechord (quote (0))) (init-mus-color thechord (quote nil)) (set-extra-pairs thechord (quote nil)) (set-tonalite thechord nil) thechord) (let ((thechord (make-instance (quote chord) :lmidic (quote (6000)) :ldur (quote (500)) :lvel (quote (100)) :loffset (quote (0)) :lchan (quote (1))))) (load-port-info thechord (quote (0))) (init-mus-color thechord (quote nil)) (set-extra-pairs thechord (quote nil)) (set-tonalite thechord nil) thechord)))) :tempo (quote ((1/4 60) nil)) :legato 100 :ties (quote (nil nil nil nil nil nil nil nil nil)))))) (load-port-info newobj (quote nil)) (init-mus-color newobj (quote nil)) (set-extra-pairs newobj (quote nil)) (set-patch-pairs newobj (quote nil)) (set-name newobj nil) (set-tonalite newobj nil) newobj) nil nil (pairlis (quote (show-stems obj-mode palette-mode winpos winsize mode grillestep notechancolor? zoom inport outport deltapict cmnpref staff fontsize approx scale)) (list (quote t) 0 0 2621450 18350450 0 1000 nil 1 0 0 (om-make-point 0 0) (let ((newobj (make-instance (quote edition-values)))) (setf (paper-size newobj) (om-make-point 600 800)) (setf (top-margin newobj) 2) (setf (left-margin newobj) 1) (setf (right-margin newobj) 1) (setf (bottom-margin newobj) 1) (setf (orientation newobj) nil) (setf (scale newobj) nil) (setf (system-space newobj) (quote (1))) (setf (system-color newobj) (quote nil)) (setf (line-space newobj) 1) (setf (title newobj) nil) (setf (show-title? newobj) nil) (setf (show-page? newobj) nil) (setf (sheet-id newobj) nil) (setf (page-mode newobj) nil) newobj) (quote g) 24 2 nil)) t nil nil nil))) (when (fboundp (quote set-active)) (set-active box nil)) box) (let ((box (om-load-editor-box1 "VOICE" (quote voice) (quote ((om-load-inputfun (quote input-funbox) "objs" "SELF" nil) (om-load-inputfun (quote input-funbox) "a list representing a rhythm tree" "TREE" (list (quote ?) (list (list (quote |4//4|) (list 1 1 1 1))))) (om-load-inputfun (quote input-funbox) "a chord object , a list of chord objects, a list of midics, a list of lists of midics." "CHORDS" (list (let ((thechord (make-instance (quote chord) :lmidic (quote (6000)) :ldur (quote (1000)) :lvel (quote (100)) :loffset (quote (0)) :lchan (quote (1))))) (load-port-info thechord (quote (0))) (init-mus-color thechord (quote nil)) (set-extra-pairs thechord (quote nil)) (set-tonalite thechord nil) thechord))) (om-load-inputfun (quote input-funbox) "a number indicating the frequency of the quarter-note (default 60/mn)" "TEMPO" 60) (om-load-inputfun (quote input-funbox) "no documentation" "LEGATO" 100) (om-load-inputfun (quote input-funbox) "no documentation" "TIES" nil))) (om-make-point 88 44) (om-make-point 480 123) (let ((newobj (when (find-class (quote voice) nil) (make-instance (quote voice) :tree (quote (2 (((4 4) (1 (1 (3.0 1)) 1 (1 (1.0 1)))) ((4 4) (1 1 1 -1))))) :chords (load-obj-list-from-save (quote ((let ((thechord (make-instance (quote chord) :lmidic (quote (6000)) :ldur (quote (1000)) :lvel (quote (100)) :loffset (quote (0)) :lchan (quote (1))))) (load-port-info thechord (quote (0))) (init-mus-color thechord (quote nil)) (set-extra-pairs thechord (quote nil)) (set-tonalite thechord nil) thechord) (let ((thechord (make-instance (quote chord) :lmidic (quote (6000)) :ldur (quote (250)) :lvel (quote (100)) :loffset (quote (0)) :lchan (quote (1))))) (load-port-info thechord (quote (0))) (init-mus-color thechord (quote nil)) (set-extra-pairs thechord (quote nil)) (set-tonalite thechord nil) thechord) (let ((thechord (make-instance (quote chord) :lmidic (quote (6000)) :ldur (quote (1000)) :lvel (quote (100)) :loffset (quote (0)) :lchan (quote (1))))) (load-port-info thechord (quote (0))) (init-mus-color thechord (quote nil)) (set-extra-pairs thechord (quote nil)) (set-tonalite thechord nil) thechord) (let ((thechord (make-instance (quote chord) :lmidic (quote (6000)) :ldur (quote (500)) :lvel (quote (100)) :loffset (quote (0)) :lchan (quote (1))))) (load-port-info thechord (quote (0))) (init-mus-color thechord (quote nil)) (set-extra-pairs thechord (quote nil)) (set-tonalite thechord nil) thechord) (let ((thechord (make-instance (quote chord) :lmidic (quote (6000)) :ldur (quote (1000)) :lvel (quote (100)) :loffset (quote (0)) :lchan (quote (1))))) (load-port-info thechord (quote (0))) (init-mus-color thechord (quote nil)) (set-extra-pairs thechord (quote nil)) (set-tonalite thechord nil) thechord) (let ((thechord (make-instance (quote chord) :lmidic (quote (6000)) :ldur (quote (1000)) :lvel (quote (100)) :loffset (quote (0)) :lchan (quote (1))))) (load-port-info thechord (quote (0))) (init-mus-color thechord (quote nil)) (set-extra-pairs thechord (quote nil)) (set-tonalite thechord nil) thechord) (let ((thechord (make-instance (quote chord) :lmidic (quote (6000)) :ldur (quote (1000)) :lvel (quote (100)) :loffset (quote (0)) :lchan (quote (1))))) (load-port-info thechord (quote (0))) (init-mus-color thechord (quote nil)) (set-extra-pairs thechord (quote nil)) (set-tonalite thechord nil) thechord)))) :tempo (quote ((1/4 60) nil)) :legato 100 :ties (quote (nil nil nil nil nil nil nil)))))) (load-port-info newobj (quote nil)) (init-mus-color newobj (quote nil)) (set-extra-pairs newobj (quote nil)) (set-patch-pairs newobj (quote nil)) (set-name newobj nil) (set-tonalite newobj nil) newobj) nil nil (pairlis (quote (show-stems obj-mode palette-mode winpos winsize mode grillestep notechancolor? zoom inport outport deltapict cmnpref staff fontsize approx scale)) (list (quote t) 0 0 2621450 18350450 0 1000 nil 1 0 0 (om-make-point 0 0) (let ((newobj (make-instance (quote edition-values)))) (setf (paper-size newobj) (om-make-point 600 800)) (setf (top-margin newobj) 2) (setf (left-margin newobj) 1) (setf (right-margin newobj) 1) (setf (bottom-margin newobj) 1) (setf (orientation newobj) nil) (setf (scale newobj) nil) (setf (system-space newobj) (quote (1))) (setf (system-color newobj) (quote nil)) (setf (line-space newobj) 1) (setf (title newobj) nil) (setf (show-title? newobj) nil) (setf (show-page? newobj) nil) (setf (sheet-id newobj) nil) (setf (page-mode newobj) nil) newobj) (quote g) 24 2 nil)) t nil nil nil))) (when (fboundp (quote set-active)) (set-active box nil)) box))) (quote nil) 7.01 nil "" (om-make-point 200 200) (om-make-point 619 484)) (quote nil) (om-make-point 774 216) nil nil nil "esempi1"))) (when (fboundp (quote set-active)) (set-active box nil)) box) (let ((box (om-load-boxcall (quote genfun) "SEPARATOR" (quote separator) (quote ((om-load-inputfun (quote input-funbox) "cromosomes" "CROMOSOMES" nil))) (om-make-point 28 177) nil nil nil nil 4))) (when (fboundp (quote set-active)) (set-active box nil)) box) (let ((box (om-load-boxcall (quote abstraction) "conversion" (om-load-patch-abs1 "conversion" (quote ((let ((box (om-load-boxcall (quote genfun) "FLAT1" (quote flat) (quote ((om-load-inputfun (quote input-funbox) "one list" "LST" nil) (om-load-inputfun (quote input-funbox) "level of parenthesis" "LEVEL" 1))) (om-make-point 75 60) nil nil nil nil 1))) (when (fboundp (quote set-active)) (set-active box nil)) box) (let ((box (om-load-boxcall (quote genfun) "MKTREE" (quote mktree) (quote ((om-load-inputfun (quote input-funbox) "list of integer ratio" "RHYTHM" (list 1/4 1/4 1/4 1/4)) (om-load-inputfun (quote input-funbox) "list of time signatures" "TIMESIGNS" (list 4 4)))) (om-make-point 110 110) nil nil nil nil 1))) (when (fboundp (quote set-active)) (set-active box nil)) box) (let ((box (om-load-boxin "input" 0 (om-make-point 67 5) "no documentation" nil nil nil))) (when (fboundp (quote set-active)) (set-active box nil)) box) (let ((box (om-load-boxout "output" 0 (om-make-point 114 168) (quote ((om-load-inputfun (quote input-funbox) "out" "out" nil))) nil nil))) (when (fboundp (quote set-active)) (set-active box nil)) box))) (quote ((2 0 0 0 nil 0) (0 0 1 0 nil 0) (1 0 3 0 nil 0))) 7.01 nil "" (om-make-point 200 200) (om-make-point 400 500)) (quote ((om-load-inputfun (quote input-funbox) "no documentation" "input" nil))) (om-make-point 113 399) nil (list (list (quote ?) (list (list (list 4 4) (list 1 1 1 1)) (list (list 4 4) (list 4)) (list (list 4 4) (list 3.0 1)) (list (list 4 4) (list 1 -3))))) nil "conversion"))) (when (fboundp (quote set-active)) (set-active box nil)) box) (let ((box (om-load-editor-box1 "VOICE" (quote voice) (quote ((om-load-inputfun (quote input-funbox) "objs" "SELF" nil) (om-load-inputfun (quote input-funbox) "a list representing a rhythm tree" "TREE" (list (quote ?) (list (list (quote |4//4|) (list 1 1 1 1))))) (om-load-inputfun (quote input-funbox) "a chord object , a list of chord objects, a list of midics, a list of lists of midics." "CHORDS" (list (let ((thechord (make-instance (quote chord) :lmidic (quote (6000)) :ldur (quote (1000)) :lvel (quote (100)) :loffset (quote (0)) :lchan (quote (1))))) (load-port-info thechord (quote (0))) (init-mus-color thechord (quote nil)) (set-extra-pairs thechord (quote nil)) (set-tonalite thechord nil) thechord))) (om-load-inputfun (quote input-funbox) "a number indicating the frequency of the quarter-note (default 60/mn)" "TEMPO" 60) (om-load-inputfun (quote input-funbox) "no documentation" "LEGATO" 100) (om-load-inputfun (quote input-funbox) "no documentation" "TIES" nil))) (om-make-point 36 500) (om-make-point 450 136) (let ((newobj (when (find-class (quote voice) nil) (make-instance (quote voice) :tree (quote (4 (((4 4) (1 1 1 1)) ((4 4) (4)) ((4 4) (3.0 1)) ((4 4) (1 -3))))) :chords (load-obj-list-from-save (quote ((let ((thechord (make-instance (quote chord) :lmidic (quote (6000)) :ldur (quote (1000)) :lvel (quote (100)) :loffset (quote (0)) :lchan (quote (1))))) (load-port-info thechord (quote (0))) (init-mus-color thechord (quote nil)) (set-extra-pairs thechord (quote nil)) (set-tonalite thechord nil) thechord) (let ((thechord (make-instance (quote chord) :lmidic (quote (6000)) :ldur (quote (1000)) :lvel (quote (100)) :loffset (quote (0)) :lchan (quote (1))))) (load-port-info thechord (quote (0))) (init-mus-color thechord (quote nil)) (set-extra-pairs thechord (quote nil)) (set-tonalite thechord nil) thechord) (let ((thechord (make-instance (quote chord) :lmidic (quote (6000)) :ldur (quote (1000)) :lvel (quote (100)) :loffset (quote (0)) :lchan (quote (1))))) (load-port-info thechord (quote (0))) (init-mus-color thechord (quote nil)) (set-extra-pairs thechord (quote nil)) (set-tonalite thechord nil) thechord) (let ((thechord (make-instance (quote chord) :lmidic (quote (6000)) :ldur (quote (1000)) :lvel (quote (100)) :loffset (quote (0)) :lchan (quote (1))))) (load-port-info thechord (quote (0))) (init-mus-color thechord (quote nil)) (set-extra-pairs thechord (quote nil)) (set-tonalite thechord nil) thechord) (let ((thechord (make-instance (quote chord) :lmidic (quote (6000)) :ldur (quote (4000)) :lvel (quote (100)) :loffset (quote (0)) :lchan (quote (1))))) (load-port-info thechord (quote (0))) (init-mus-color thechord (quote nil)) (set-extra-pairs thechord (quote nil)) (set-tonalite thechord nil) thechord) (let ((thechord (make-instance (quote chord) :lmidic (quote (6000)) :ldur (quote (1000)) :lvel (quote (100)) :loffset (quote (0)) :lchan (quote (1))))) (load-port-info thechord (quote (0))) (init-mus-color thechord (quote nil)) (set-extra-pairs thechord (quote nil)) (set-tonalite thechord nil) thechord) (let ((thechord (make-instance (quote chord) :lmidic (quote (6000)) :ldur (quote (1000)) :lvel (quote (100)) :loffset (quote (0)) :lchan (quote (1))))) (load-port-info thechord (quote (0))) (init-mus-color thechord (quote nil)) (set-extra-pairs thechord (quote nil)) (set-tonalite thechord nil) thechord)))) :tempo (quote ((1/4 60) nil)) :legato 100 :ties (quote (nil nil nil nil nil nil nil)))))) (load-port-info newobj (quote nil)) (init-mus-color newobj (quote nil)) (set-extra-pairs newobj (quote nil)) (set-patch-pairs newobj (quote nil)) (set-name newobj nil) (set-tonalite newobj nil) newobj) nil nil (pairlis (quote (show-stems obj-mode palette-mode winpos winsize mode grillestep notechancolor? zoom inport outport deltapict cmnpref staff fontsize approx scale)) (list (quote t) 0 0 2621450 18350450 0 1000 nil 1 0 0 (om-make-point 0 0) (let ((newobj (make-instance (quote edition-values)))) (setf (paper-size newobj) (om-make-point 600 800)) (setf (top-margin newobj) 2) (setf (left-margin newobj) 1) (setf (right-margin newobj) 1) (setf (bottom-margin newobj) 1) (setf (orientation newobj) nil) (setf (scale newobj) nil) (setf (system-space newobj) (quote (1))) (setf (system-color newobj) (quote nil)) (setf (line-space newobj) 1) (setf (title newobj) nil) (setf (show-title? newobj) nil) (setf (show-page? newobj) nil) (setf (sheet-id newobj) nil) (setf (page-mode newobj) nil) newobj) (quote g) 24 2 nil)) t nil nil nil))) (when (fboundp (quote set-active)) (set-active box nil)) box) (let ((box (om-load-boxcall (quote genfun) "EVOLUTION" (quote evolution) (quote ((om-load-inputfun (quote input-funbox) "initial population" "CROMOSOMES" nil) (om-load-inputfun (quote input-funbox) "number of generations" "NUM-OF-GEN" 50) (om-load-inputfun (quote input-funbox) "fitness function" "FITNESS-FUNC" nil) (om-load-inputfun (quote input-funbox) "mutation function" "MUTATION-FUNC" nil) (om-load-inputfun (quote input-funbox) "number of best elements" "N-BEST-ELEMENTS" 1) (om-load-inputfun (quote input-funbox) "perc of unchange elements" "ELITE-PERC" 10) (om-load-inputfunmenu1 (quote input-funmenu) "rescaling method" "SCALE" (quote sigma) (list (list "Prop" (quote (quote prop))) (list "Sigma" (quote (quote sigma))))) (om-load-inputfunmenu1 (quote input-funmenu) "best of all or last generation" "RESULT" (quote last-generation) (list (list "Last generation" (quote (quote last-generation))) (list "All generations" (quote (quote all-generations))))))) (om-make-point 90 299) (om-make-point 275 53) nil nil "evolution" 2))) (when (fboundp (quote set-active)) (set-active box nil)) box) (let ((box (om-load-boxcall (quote abstraction) "fitness" (om-load-patch-abs1 "fitness" (quote ((let ((box (om-load-boxcall (quote genfun) "RANDOM-FIT" (quote random-fit) (quote ((om-load-inputfun (quote input-funbox) "list of list chromosomes" "CHROMOSOMES" nil))) (om-make-point 600 176) nil nil nil nil 1))) (when (fboundp (quote set-active)) (set-active box nil)) box) (let ((box (om-load-boxcall (quote bastype) "list1" (quote list) (quote nil) (om-make-point 148 144) (om-make-point 140 36) (list 1/16 1/4 1/8 3/16) "(1/16 1/4 1/8 3/16)" nil))) (when (fboundp (quote set-active)) (set-active box nil)) box) (let ((box (om-load-boxcall (quote genfun) "DIFFERENCES" (quote differences) (quote ((om-load-inputfun (quote input-funbox) "list of pitches" "PITCHES" nil) (om-load-inputfun (quote input-funbox) "permitted distance from root" "ALLOWED-ELEMENTS" nil) (om-load-inputfunmenu1 (quote input-funmenu) "option" "OPTION" (quote normal) (list (list "Normal" (quote (quote normal))) (list "Octave" (quote (quote octave))) (list "Absolute" (quote (quote absolute))))) (om-load-inputfun (quote input-funbox) "ideal ratio" "IDEAL-RATIO" 0.3))) (om-make-point 124 181) (om-make-point 117 75) nil nil nil 1))) (when (fboundp (quote set-active)) (set-active box nil)) box) (let ((box (om-load-boxcall (quote genfun) "SOUND-SILENCE-RATIO" (quote sound-silence-ratio) (quote ((om-load-inputfun (quote input-funbox) "people" "DURATIONS" nil) (om-load-inputfun (quote input-funbox) "ratio" "IDEAL-RATIO" 1.0))) (om-make-point 309 180) nil nil nil nil 1))) (when (fboundp (quote set-active)) (set-active box nil)) box) (let ((box (om-load-boxcall (quote genfun) "SCALE1" (quote scale1) (quote ((om-load-inputfun (quote input-funbox) "no documentation" "LISTE-PUNTI" nil) (om-load-inputfun (quote input-funbox) "no documentation" "LISTE-PUNTI" nil) (om-load-inputfun (quote input-funbox) "no documentation" "LISTE-PUNTI" nil) (om-load-inputfun (quote input-funbox) "" "FIT-VAL" nil))) (om-make-point 206 271) nil nil nil nil 1))) (when (fboundp (quote set-active)) (set-active box nil)) box) (let ((box (om-load-boxcall (quote genfun) "SYNCOPATION" (quote syncopation) (quote ((om-load-inputfun (quote input-funbox) "list of rhithmic values" "DUR-VALUES" nil) (om-load-inputfun (quote input-funbox) "tactus" "TACTUS" 1/4) (om-load-inputfun (quote input-funbox) "ideal ratio" "IDEAL-RATIO" 0.1))) (om-make-point 38 181) nil nil nil nil 1))) (when (fboundp (quote set-active)) (set-active box nil)) box) (let ((box (om-load-boxcall (quote bastype) "list3" (quote list) (quote nil) (om-make-point 294 161) (om-make-point 38 30) 0.1 "0.1" nil))) (when (fboundp (quote set-active)) (set-active box nil)) box) (let ((box (om-load-boxcall (quote bastype) "list4" (quote list) (quote nil) (om-make-point 364 159) (om-make-point 38 30) 1.0 "1.0" nil))) (when (fboundp (quote set-active)) (set-active box nil)) box) (let ((box (om-load-boxcall (quote genfun) "RHYTHMIC-VARIETY" (quote rhythmic-variety) (quote ((om-load-inputfun (quote input-funbox) "list of list of rhythmic values" "DURATIONS" nil) (om-load-inputfun (quote input-funbox) "number of different rhythm values" "VARIETY" 2))) (om-make-point 462 183) nil nil nil nil 1))) (when (fboundp (quote set-active)) (set-active box nil)) box) (let ((box (om-load-boxin "input" 0 (om-make-point 55 35) "no documentation" nil nil nil))) (when (fboundp (quote set-active)) (set-active box nil)) box) (let ((box (om-load-boxout "output" 0 (om-make-point 220 374) (quote ((om-load-inputfun (quote input-funbox) "out" "out" nil))) nil nil))) (when (fboundp (quote set-active)) (set-active box nil)) box))) (quote ((9 0 0 0 nil 0) (9 0 2 0 nil 0) (1 0 2 1 nil 0) (6 0 2 3 nil 0) (9 0 3 0 nil 0) (7 0 3 1 nil 0) (5 0 4 0 nil 0) (2 0 4 1 nil 0) (3 0 4 2 nil 0) (8 0 4 3 nil 0) (9 0 5 0 nil 0) (9 0 8 0 nil 0) (4 0 10 0 nil 0))) 7.01 nil "" (om-make-point 200 200) (om-make-point 844 497)) (quote ((om-load-inputfun (quote input-funbox) "no documentation" "input" nil))) (om-make-point 175 146) nil (list nil) "l" "fitness"))) (when (fboundp (quote set-active)) (set-active box nil)) box) (let ((box (om-load-boxcall (quote genfun) "PHRASE-GENERATOR" (quote phrase-generator) (quote ((om-load-inputfun (quote input-funbox) "how many phrases" "NUM-PHRASES" 200) (om-load-inputfun (quote input-funbox) "lowest note" "LOW-NOTE" 4000) (om-load-inputfun (quote input-funbox) "highest note" "HIGH-NOTE" 8800) (om-load-inputfun (quote input-funbox) "cent division" "CENT-DEFINITION" 100) (om-load-inputfun (quote input-funbox) "dur1" "MIN-DURATION" 1/16) (om-load-inputfun (quote input-funbox) "dur2" "MAX-DURATION" 1/2) (om-load-inputfun (quote input-funbox) "dur def" "DUR-DEFINITION" 1/16) (om-load-inputfun (quote input-funbox) "total duration" "TOTAL-DURATION" 2) (om-load-inputfun (quote input-funbox) "note vs pause" "PERC-NOTE" 0.85))) (om-make-point 70 68) (om-make-point 101 53) nil nil nil 1))) (when (fboundp (quote set-active)) (set-active box nil)) box) (let ((box (om-load-boxcall (quote abstraction) "mutation" (om-load-patch-abs1 "mutation" (quote ((let ((box (om-load-boxcall (quote genfun) "CROSSOVER" (quote crossover) (quote ((om-load-inputfun (quote input-funbox) "parents" "CROMOSOMES" nil) (om-load-inputfun (quote input-funbox) "cross probability" "PERC" 0.65) (om-load-inputfun (quote input-funbox) "number of cross points" "CROSS-POINT" 2))) (om-make-point 64 118) nil nil nil nil 1))) (when (fboundp (quote set-active)) (set-active box nil)) box) (let ((box (om-load-boxcall (quote bastype) "list2" (quote list) (quote nil) (om-make-point 192 185) (om-make-point 52 30) 0.018 "0.018" nil))) (when (fboundp (quote set-active)) (set-active box nil)) box) (let ((box (om-load-boxcall (quote bastype) "list1" (quote list) (quote nil) (om-make-point 109 74) (om-make-point 45 30) 0.65 "0.65" nil))) (when (fboundp (quote set-active)) (set-active box nil)) box) (let ((box (om-load-boxcall (quote bastype) "list" (quote list) (quote nil) (om-make-point 185 86) (om-make-point 27 30) 2 "2" nil))) (when (fboundp (quote set-active)) (set-active box nil)) box) (let ((box (om-load-boxin "input" 0 (om-make-point 74 33) "no documentation" nil nil nil))) (when (fboundp (quote set-active)) (set-active box nil)) box) (let ((box (om-load-boxout "output" 0 (om-make-point 121 270) (quote ((om-load-inputfun (quote input-funbox) "out" "out" nil))) nil nil))) (when (fboundp (quote set-active)) (set-active box nil)) box) (let ((box (om-load-boxcall (quote genfun) "RHYTHMIC-MUTATION" (quote rhythmic-mutation) (quote ((om-load-inputfun (quote input-funbox) "list" "CROMOSOMES" (list 0)) (om-load-inputfun (quote input-funbox) "mutation probability" "PROB" 0.018))) (om-make-point 88 207) nil nil nil nil 1))) (when (fboundp (quote set-active)) (set-active box nil)) box))) (quote ((4 0 0 0 nil 0) (2 0 0 1 nil 0) (3 0 0 2 nil 0) (6 0 5 0 nil 0) (0 0 6 0 nil 0) (1 0 6 1 nil 0))) 7.01 nil "" (om-make-point 200 200) (om-make-point 400 500)) (quote ((om-load-inputfun (quote input-funbox) "no documentation" "input" nil))) (om-make-point 304 145) nil (list nil) "l" "mutation"))) (when (fboundp (quote set-active)) (set-active box nil)) box))) (quote ((18 0 13 0 nil 0) (16 1 14 0 nil 0) (14 0 15 1 nil 0) (13 0 16 0 nil 0) (11 0 16 1 nil 0) (17 0 16 2 nil 0) (19 0 16 3 nil 0) (10 0 16 4 nil 0) (9 0 16 5 nil 0) (8 0 18 0 nil 0) (6 0 18 4 nil 0) (5 0 18 5 nil 0) (4 0 18 6 nil 0) (7 0 18 7 nil 0) (3 0 18 8 nil 0))) nil 7.01))
