; OM File Header - Saved 2024/02/08 12:00:56
; (7.01 :patc (om-make-point 24 24) (om-make-point 225 54) (om-make-point 1055 589) "" 183 0 nil "2024/02/08 09:40:20")
; End File Header
(in-package :om)(load-lib-for (quote ("GA")))(setf *om-current-persistent* (om-load-patch1 "ex3 converging-melody" (quote ((let ((box (om-load-boxcall (quote abstraction) "conversion" (om-load-patch-abs1 "conversion" (quote ((let ((box (om-load-boxcall (quote lispfun) "REVERSE 2" (quote reverse) (quote ((om-load-inputfun (quote input-funbox) "SEQUENCE" "SEQUENCE" nil))) (om-make-point 291 147) nil nil nil nil 1))) (when (fboundp (quote set-active)) (set-active box nil)) box) (let ((box (om-load-boxcall (quote lispfun) "REVERSE" (quote reverse) (quote ((om-load-inputfun (quote input-funbox) "SEQUENCE" "SEQUENCE" nil))) (om-make-point 36 309) nil nil nil nil 1))) (when (fboundp (quote set-active)) (set-active box nil)) box) (let ((box (om-load-boxcall (quote genfun) "DX->X" (quote dx->x) (quote ((om-load-inputfun (quote input-funbox) "a number" "START" 0) (om-load-inputfun (quote input-funbox) "a list of numbers" "LIST" (list 1 1)))) (om-make-point 160 272) nil nil nil nil 1))) (when (fboundp (quote set-active)) (set-active box nil)) box) (let ((box (om-load-boxcall (quote genfun) "FLAT 2" (quote flat) (quote ((om-load-inputfun (quote input-funbox) "a list" "LST" nil))) (om-make-point 28 66) nil nil nil nil 1))) (when (fboundp (quote set-active)) (set-active box nil)) box) (let ((box (om-load-boxcall (quote genfun) "X->DX" (quote x->dx) (quote ((om-load-inputfun (quote input-funbox) "a list of numbers" "SELF" (list 0 1)))) (om-make-point 47 224) nil nil nil nil 1))) (when (fboundp (quote set-active)) (set-active box nil)) box) (let ((box (om-load-boxcall (quote bastype) "list" (quote list) (quote nil) (om-make-point 85 126) (om-make-point 41 30) 100 "100" nil))) (when (fboundp (quote set-active)) (set-active box nil)) box) (let ((box (om-load-boxcall (quote genfun) "OM*" (quote om*) (quote ((om-load-inputfun (quote input-funbox) "first input" "SELF" 0) (om-load-inputfun (quote input-funbox) "second input" "NUM" 0))) (om-make-point 48 160) (om-make-point 20 35) nil nil nil 1))) (when (fboundp (quote set-active)) (set-active box nil)) box) (let ((box (om-load-boxin "input1" 1 (om-make-point 152 52) "no documentation" "nota-base" nil nil))) (when (fboundp (quote set-active)) (set-active box nil)) box) (let ((box (om-load-boxin "input" 0 (om-make-point 73 0) "no documentation" "lista" nil nil))) (when (fboundp (quote set-active)) (set-active box nil)) box) (let ((box (om-load-boxout "output" 0 (om-make-point 367 283) (quote ((om-load-inputfun (quote input-funbox) "" "out" nil))) nil nil))) (when (fboundp (quote set-active)) (set-active box nil)) box))) (quote ((2 0 0 0 nil 0) (4 0 1 0 nil 0) (7 0 2 0 nil 0) (1 0 2 1 nil 0) (8 0 3 0 nil 0) (6 0 4 0 nil 0) (3 0 6 0 nil 0) (5 0 6 1 nil 0) (0 0 9 0 nil 0))) 7.01 nil "" (om-make-point 200 200) (om-make-point 500 400)) (quote ((om-load-inputfun (quote input-funbox) "no documentation" "input" nil) (om-load-inputfun (quote input-funbox) "no documentation" "input1" nil))) (om-make-point 263 326) nil (list (list 6800 5000 6500 6200 6500 6500 6500)) nil "conversion"))) (when (fboundp (quote set-active)) (set-active box nil)) box) (let ((box (om-load-boxcall (quote abstraction) "fitness" (om-load-patch-abs1 "fitness" (quote ((let ((box (om-load-boxcall (quote genfun) "DISTANCES1" (quote distances) (quote ((om-load-inputfun (quote input-funbox) "list of pitches" "PITCHES" nil) (om-load-inputfun (quote input-funbox) "permitted elements" "ALLOWED-ELEMENTS" nil) (om-load-inputfunmenu1 (quote input-funmenu) "option" "OPTION" (quote normal) (list (list "Normal" (quote (quote normal))) (list "Octave" (quote (quote octave))) (list "Absolute" (quote (quote absolute))))) (om-load-inputfunmenu1 (quote input-funmenu) "position or not" "TYPE" (quote position) (list (list "Normal" (quote (quote normal))) (list "Position" (quote (quote position))))))) (om-make-point 52 160) nil nil nil nil 1))) (when (fboundp (quote set-active)) (set-active box nil)) box) (let ((box (om-load-boxcall (quote genfun) "SCALE1" (quote scale1) (quote ((om-load-inputfun (quote input-funbox) "no documentation" "LISTE-PUNTI" nil))) (om-make-point 60 243) nil nil nil nil 1))) (when (fboundp (quote set-active)) (set-active box nil)) box) (let ((box (om-load-boxcall (quote bastype) "list" (quote list) (quote nil) (om-make-point 76 95) (om-make-point 37 30) (list 0) "(0)" nil))) (when (fboundp (quote set-active)) (set-active box nil)) box) (let ((box (om-load-boxin "input" 0 (om-make-point 5 45) "no documentation" nil nil nil))) (when (fboundp (quote set-active)) (set-active box nil)) box) (let ((box (om-load-boxout "output" 0 (om-make-point 123 362) (quote ((om-load-inputfun (quote input-funbox) "out" "out" nil))) nil nil))) (when (fboundp (quote set-active)) (set-active box nil)) box))) (quote ((3 0 0 0 nil 0) (2 0 0 1 nil 0) (0 0 1 0 nil 0) (1 0 4 0 nil 0))) 7.01 nil "" (om-make-point 200 200) (om-make-point 400 500)) (quote ((om-load-inputfun (quote input-funbox) "no documentation" "input" nil))) (om-make-point 181 200) nil (list nil) "l" "fitness"))) (when (fboundp (quote set-active)) (set-active box nil)) box) (let ((box (om-load-boxcall (quote bastype) "list2" (quote list) (quote nil) (om-make-point 135 47) (om-make-point 34 30) 40 "40" nil))) (when (fboundp (quote set-active)) (set-active box nil)) box) (let ((box (om-load-boxcall (quote bastype) "list1" (quote list) (quote nil) (om-make-point 85 42) (om-make-point 39 30) -40 "-40" nil))) (when (fboundp (quote set-active)) (set-active box nil)) box) (let ((box (om-load-editor-box1 "CHORD" (quote chord) (quote ((om-load-inputfun (quote input-funbox) "objs" "SELF" nil) (om-load-inputfun (quote input-funbox) "no documentation" "LMIDIC" (list 6000)) (om-load-inputfun (quote input-funbox) "no documentation" "LVEL" (list 100)) (om-load-inputfun (quote input-funbox) "no documentation" "LOFFSET" (list 0)) (om-load-inputfun (quote input-funbox) "no documentation" "LDUR" (list 1000)) (om-load-inputfun (quote input-funbox) "no documentation" "LCHAN" (list 1)))) (om-make-point 208 449) (om-make-point 270 115) (let ((thechord (make-instance (quote chord) :lmidic (quote (6800 5000 6500 6200 6500 6500 6500)) :ldur (quote (1000 1000 1000 1000 1000 1000 1000)) :lvel (quote (100 100 100 100 100 100 100)) :loffset (quote (0 0 0 0 0 0 0)) :lchan (quote (1 1 1 1 1 1 1))))) (load-port-info thechord (quote (0 0 0 0 0 0 0))) (init-mus-color thechord (quote nil)) (set-extra-pairs thechord (quote nil)) (set-tonalite thechord nil) thechord) nil nil (pairlis (quote (show-stems obj-mode palette-mode winpos winsize mode grillestep notechancolor? zoom inport outport deltapict cmnpref staff fontsize approx scale cursor-mode score-mode)) (list (quote t) 0 0 (om-make-point 10 40) (om-make-point 857 334) 3 1000 nil 1 0 0 (om-make-point 0 0) (let ((newobj (make-instance (quote edition-values)))) (setf (paper-size newobj) (om-make-point 600 800)) (setf (top-margin newobj) 2) (setf (left-margin newobj) 1) (setf (right-margin newobj) 1) (setf (bottom-margin newobj) 1) (setf (orientation newobj) nil) (setf (scale newobj) nil) (setf (system-space newobj) (quote (1))) (setf (system-color newobj) (quote nil)) (setf (line-space newobj) 1) (setf (title newobj) nil) (setf (show-title? newobj) nil) (setf (show-page? newobj) nil) (setf (sheet-id newobj) nil) (setf (page-mode newobj) nil) newobj) (quote g) 24 2 nil (quote :normal) 0)) t nil nil nil))) (when (fboundp (quote set-active)) (set-active box nil)) box) (let ((box (om-load-boxcall (quote bastype) "list" (quote list) (quote nil) (om-make-point 311 292) (om-make-point 48 30) 6500 "6500" nil))) (when (fboundp (quote set-active)) (set-active box nil)) box) (let ((box (om-load-boxcall (quote genfun) "SEPARATOR" (quote separator) (quote ((om-load-inputfun (quote input-funbox) "cromosomes" "CROMOSOMES" nil))) (om-make-point 90 175) nil nil nil nil 4))) (when (fboundp (quote set-active)) (set-active box nil)) box) (let ((box (om-load-boxcall (quote genfun) "EVOLUTION" (quote evolution) (quote ((om-load-inputfun (quote input-funbox) "initial population" "CROMOSOMES" nil) (om-load-inputfun (quote input-funbox) "number of generations" "NUM-OF-GEN" 50) (om-load-inputfun (quote input-funbox) "fitness function" "FITNESS-FUNC" nil) (om-load-inputfun (quote input-funbox) "mutation function" "MUTATION-FUNC" nil) (om-load-inputfun (quote input-funbox) "number of best elements" "N-BEST-ELEMENTS" 1) (om-load-inputfun (quote input-funbox) "perc of unchange elements" "ELITE-PERC" 10) (om-load-inputfunmenu1 (quote input-funmenu) "rescaling method" "SCALE" (quote sigma) (list (list "Prop" (quote (quote prop))) (list "Sigma" (quote (quote sigma))))) (om-load-inputfunmenu1 (quote input-funmenu) "best of all or last generation" "RESULT" (quote last-generation) (list (list "Last generation" (quote (quote last-generation))) (list "All generations" (quote (quote all-generations))))))) (om-make-point 128 282) nil nil nil nil 2))) (when (fboundp (quote set-active)) (set-active box nil)) box) (let ((box (om-load-boxcall (quote genfun) "PHRASE-GENERATOR" (quote phrase-generator) (quote ((om-load-inputfun (quote input-funbox) "how many phrases" "NUM-PHRASES" 50) (om-load-inputfun (quote input-funbox) "lowest note" "LOW-NOTE" -40) (om-load-inputfun (quote input-funbox) "highest note" "HIGH-NOTE" 40) (om-load-inputfun (quote input-funbox) "cent division" "CENT-DEFINITION" 1) (om-load-inputfun (quote input-funbox) "dur1" "MIN-DURATION" 1/16) (om-load-inputfun (quote input-funbox) "dur2" "MAX-DURATION" 1/2) (om-load-inputfun (quote input-funbox) "dur def" "DUR-DEFINITION" 1/16) (om-load-inputfun (quote input-funbox) "total duration" "TOTAL-DURATION" 3) (om-load-inputfun (quote input-funbox) "note vs pause" "PERC-NOTE" 1.0))) (om-make-point 76 94) (om-make-point 101 53) nil nil nil 1))) (when (fboundp (quote set-active)) (set-active box nil)) box) (let ((box (om-load-boxcall (quote abstraction) "mutation" (om-load-patch-abs1 "mutation" (quote ((let ((box (om-load-boxcall (quote genfun) "CROSSOVER" (quote crossover) (quote ((om-load-inputfun (quote input-funbox) "parents" "CROMOSOMES" nil) (om-load-inputfun (quote input-funbox) "cross probability" "PERC" 0.65) (om-load-inputfun (quote input-funbox) "number of cross points" "CROSS-POINT" 2))) (om-make-point 100 118) nil nil nil nil 1))) (when (fboundp (quote set-active)) (set-active box nil)) box) (let ((box (om-load-boxcall (quote genfun) "PITCH-MUTATION" (quote pitch-mutation) (quote ((om-load-inputfun (quote input-funbox) "list" "CROMOSOMES" (list 0)) (om-load-inputfun (quote input-funbox) "mutation probability" "PROB" 0.018) (om-load-inputfunmenu1 (quote input-funmenu) "mutation-type" "MUTATION-TYPE" (quote normal-add) (list (list "normal" (quote (quote normal-add))) (list "fifth" (quote (quote fifth-add))))))) (om-make-point 66 205) nil nil nil nil 1))) (when (fboundp (quote set-active)) (set-active box nil)) box) (let ((box (om-load-boxin "input" 0 (om-make-point 5 45) "no documentation" nil nil nil))) (when (fboundp (quote set-active)) (set-active box nil)) box) (let ((box (om-load-boxout "output" 0 (om-make-point 81 305) (quote ((om-load-inputfun (quote input-funbox) "out" "out" nil))) nil nil))) (when (fboundp (quote set-active)) (set-active box nil)) box))) (quote ((2 0 0 0 nil 0) (0 0 1 0 nil 0) (1 0 3 0 nil 0))) 7.01 nil "" (om-make-point 200 200) (om-make-point 400 500)) (quote ((om-load-inputfun (quote input-funbox) "no documentation" "input" nil))) (om-make-point 293 201) nil (list nil) "l" "mutation"))) (when (fboundp (quote set-active)) (set-active box nil)) box))) (quote ((7 1 0 0 nil 0) (5 0 0 1 nil 0) (0 0 4 1 nil 0) (8 0 6 0 nil 0) (6 1 7 0 nil 0) (1 0 7 2 nil 0) (9 0 7 3 nil 0) (3 0 8 1 nil 0) (2 0 8 2 nil 0))) nil 7.01))
